<svg height="1280pt" preserveAspectRatio="xMidYMid meet" viewBox="0 0 975 1280" width="975pt" xmlns="http://www.w3.org/2000/svg"><path d="m2745 12789c-22-7-2712-369-2740-369-3 0-5-1618-5-3596 0-3745 0-3756 41-4179 56-592 177-1115 373-1615 69-174 259-563 351-715 220-365 446-657 744-959 561-569 1239-961 2016-1166 370-97 676-143 1188-176 254-17 279-17 515-1 559 40 885 98 1297 234 682 224 1251 583 1780 1124 791 810 1257 1780 1394 2909 17 137 51 598 51 691 0 91-33 505-51 636-118 877-487 1683-1098 2397-468 547-988 964-1561 1251-619 310-1349 461-2061 425-682-34-1146-174-1832-554-86-48-162-84-167-81-7 4-10 658-10 1881v1874l-97-1c-54-1-111-5-128-10zm2277-5913c288-45 568-153 806-309 233-153 461-377 607-597 208-312 305-648 305-1053 0-624-205-1140-615-1553-308-309-653-480-1105-545-124-18-175-21-365-16-185 4-239 9-341 31-460 98-840 356-1149 781-354 488-479 1065-359 1665 83 413 293 786 617 1097 301 287 633 453 1017 507 129 19 440 14 582-8z" fill="#344055" transform="matrix(.1 0 0 -.1 0 1280)"/></svg>